<mxfile host="app.diagrams.net" modified="2022-04-30T07:50:49.683Z" agent="5.0 (Windows NT 10.0; Win64; x64) AppleWebKit/537.36 (KHTML, like Gecko) Chrome/100.0.4896.127 Safari/537.36" etag="OVx0jeCZgCc3ilO2OcD8" version="17.4.6" type="github">
  <diagram name="Page-1" id="74e2e168-ea6b-b213-b513-2b3c1d86103e">
    <mxGraphModel dx="2373" dy="2287" grid="1" gridSize="10" guides="1" tooltips="1" connect="1" arrows="1" fold="1" page="1" pageScale="1" pageWidth="1100" pageHeight="850" background="none" math="0" shadow="0">
      <root>
        <mxCell id="0" />
        <mxCell id="1" parent="0" />
        <mxCell id="77e6c97f196da883-1" value="Pool" style="swimlane;html=1;childLayout=stackLayout;startSize=20;rounded=0;shadow=0;labelBackgroundColor=none;strokeWidth=1;fontFamily=Verdana;fontSize=8;align=center;" parent="1" vertex="1">
          <mxGeometry x="-680" y="-40" width="2400" height="1330" as="geometry" />
        </mxCell>
        <mxCell id="77e6c97f196da883-2" value="Main" style="swimlane;html=1;startSize=20;" parent="77e6c97f196da883-1" vertex="1">
          <mxGeometry y="20" width="660" height="1310" as="geometry" />
        </mxCell>
        <mxCell id="PpUYok5O0yKE4FNJiVqX-5" style="edgeStyle=none;curved=1;rounded=0;orthogonalLoop=1;jettySize=auto;html=1;exitX=0.5;exitY=1;exitDx=0;exitDy=0;entryX=0.5;entryY=0;entryDx=0;entryDy=0;endArrow=open;startSize=14;endSize=14;sourcePerimeterSpacing=8;targetPerimeterSpacing=8;" edge="1" parent="77e6c97f196da883-2" source="77e6c97f196da883-8" target="PpUYok5O0yKE4FNJiVqX-4">
          <mxGeometry relative="1" as="geometry" />
        </mxCell>
        <mxCell id="77e6c97f196da883-8" value="start" style="rounded=1;whiteSpace=wrap;html=1;shadow=0;labelBackgroundColor=none;strokeWidth=1;fontFamily=Verdana;fontSize=8;align=center;" parent="77e6c97f196da883-2" vertex="1">
          <mxGeometry x="70" y="50" width="40" height="25" as="geometry" />
        </mxCell>
        <mxCell id="PpUYok5O0yKE4FNJiVqX-2" value="sortObject(object, num)" style="shape=process;whiteSpace=wrap;html=1;backgroundOutline=1;hachureGap=4;" vertex="1" parent="77e6c97f196da883-2">
          <mxGeometry x="10" y="150" width="160" height="21" as="geometry" />
        </mxCell>
        <mxCell id="PpUYok5O0yKE4FNJiVqX-6" style="edgeStyle=none;curved=1;rounded=0;orthogonalLoop=1;jettySize=auto;html=1;exitX=0.5;exitY=1;exitDx=0;exitDy=0;entryX=0.5;entryY=0;entryDx=0;entryDy=0;endArrow=open;startSize=14;endSize=14;sourcePerimeterSpacing=8;targetPerimeterSpacing=8;" edge="1" parent="77e6c97f196da883-2" source="PpUYok5O0yKE4FNJiVqX-4" target="PpUYok5O0yKE4FNJiVqX-2">
          <mxGeometry relative="1" as="geometry" />
        </mxCell>
        <mxCell id="PpUYok5O0yKE4FNJiVqX-4" value="objectのperformance&amp;nbsp;&lt;br&gt;value / weight の値を入れる" style="shape=parallelogram;perimeter=parallelogramPerimeter;whiteSpace=wrap;html=1;fixedSize=1;hachureGap=4;" vertex="1" parent="77e6c97f196da883-2">
          <mxGeometry x="5" y="90" width="170" height="40" as="geometry" />
        </mxCell>
        <mxCell id="PpUYok5O0yKE4FNJiVqX-27" style="edgeStyle=orthogonalEdgeStyle;rounded=0;orthogonalLoop=1;jettySize=auto;html=1;exitX=0.5;exitY=1;exitDx=0;exitDy=0;entryX=0.5;entryY=0;entryDx=0;entryDy=0;endArrow=open;startSize=14;endSize=14;sourcePerimeterSpacing=8;targetPerimeterSpacing=8;" edge="1" parent="77e6c97f196da883-2" source="PpUYok5O0yKE4FNJiVqX-9" target="PpUYok5O0yKE4FNJiVqX-10">
          <mxGeometry relative="1" as="geometry" />
        </mxCell>
        <mxCell id="PpUYok5O0yKE4FNJiVqX-56" style="edgeStyle=orthogonalEdgeStyle;rounded=0;orthogonalLoop=1;jettySize=auto;html=1;exitX=0;exitY=0.5;exitDx=0;exitDy=0;entryX=0.5;entryY=0;entryDx=0;entryDy=0;endArrow=open;startSize=14;endSize=14;sourcePerimeterSpacing=8;targetPerimeterSpacing=8;" edge="1" parent="77e6c97f196da883-2" source="PpUYok5O0yKE4FNJiVqX-9" target="PpUYok5O0yKE4FNJiVqX-19">
          <mxGeometry relative="1" as="geometry" />
        </mxCell>
        <mxCell id="PpUYok5O0yKE4FNJiVqX-9" value="Knapsack == 0" style="rhombus;whiteSpace=wrap;html=1;hachureGap=4;" vertex="1" parent="77e6c97f196da883-2">
          <mxGeometry x="280" y="430" width="117.18" height="50" as="geometry" />
        </mxCell>
        <mxCell id="PpUYok5O0yKE4FNJiVqX-31" style="edgeStyle=orthogonalEdgeStyle;rounded=0;orthogonalLoop=1;jettySize=auto;html=1;exitX=1;exitY=0.5;exitDx=0;exitDy=0;entryX=0.5;entryY=0;entryDx=0;entryDy=0;endArrow=open;startSize=14;endSize=14;sourcePerimeterSpacing=8;targetPerimeterSpacing=8;" edge="1" parent="77e6c97f196da883-2" source="PpUYok5O0yKE4FNJiVqX-10" target="PpUYok5O0yKE4FNJiVqX-28">
          <mxGeometry relative="1" as="geometry" />
        </mxCell>
        <mxCell id="PpUYok5O0yKE4FNJiVqX-32" style="edgeStyle=orthogonalEdgeStyle;rounded=0;orthogonalLoop=1;jettySize=auto;html=1;exitX=0.5;exitY=1;exitDx=0;exitDy=0;entryX=0.5;entryY=0;entryDx=0;entryDy=0;endArrow=open;startSize=14;endSize=14;sourcePerimeterSpacing=8;targetPerimeterSpacing=8;" edge="1" parent="77e6c97f196da883-2" source="PpUYok5O0yKE4FNJiVqX-10" target="PpUYok5O0yKE4FNJiVqX-30">
          <mxGeometry relative="1" as="geometry" />
        </mxCell>
        <mxCell id="PpUYok5O0yKE4FNJiVqX-10" value="Kanpsack &amp;lt; object[j].weight" style="rhombus;whiteSpace=wrap;html=1;hachureGap=4;" vertex="1" parent="77e6c97f196da883-2">
          <mxGeometry x="273.59000000000003" y="550" width="130" height="60" as="geometry" />
        </mxCell>
        <mxCell id="PpUYok5O0yKE4FNJiVqX-13" value="int j = 0;" style="shape=parallelogram;perimeter=parallelogramPerimeter;whiteSpace=wrap;html=1;fixedSize=1;hachureGap=4;" vertex="1" parent="77e6c97f196da883-2">
          <mxGeometry x="40" y="290" width="100" height="20" as="geometry" />
        </mxCell>
        <mxCell id="PpUYok5O0yKE4FNJiVqX-72" style="edgeStyle=orthogonalEdgeStyle;rounded=0;orthogonalLoop=1;jettySize=auto;html=1;exitX=0.5;exitY=1;exitDx=0;exitDy=0;entryX=0.5;entryY=0;entryDx=0;entryDy=0;endArrow=open;startSize=14;endSize=14;sourcePerimeterSpacing=8;targetPerimeterSpacing=8;" edge="1" parent="77e6c97f196da883-2" source="PpUYok5O0yKE4FNJiVqX-19" target="77e6c97f196da883-10">
          <mxGeometry relative="1" as="geometry">
            <Array as="points">
              <mxPoint x="171" y="780" />
              <mxPoint x="75" y="780" />
            </Array>
          </mxGeometry>
        </mxCell>
        <mxCell id="PpUYok5O0yKE4FNJiVqX-19" value="出力 result_price : $sum&amp;nbsp;" style="shape=parallelogram;perimeter=parallelogramPerimeter;whiteSpace=wrap;html=1;fixedSize=1;hachureGap=4;" vertex="1" parent="77e6c97f196da883-2">
          <mxGeometry x="90" y="580" width="161.87" height="20" as="geometry" />
        </mxCell>
        <mxCell id="PpUYok5O0yKE4FNJiVqX-47" style="edgeStyle=orthogonalEdgeStyle;rounded=0;orthogonalLoop=1;jettySize=auto;html=1;exitX=0.5;exitY=1;exitDx=0;exitDy=0;entryX=0.5;entryY=1;entryDx=0;entryDy=0;endArrow=open;startSize=14;endSize=14;sourcePerimeterSpacing=8;targetPerimeterSpacing=8;" edge="1" parent="77e6c97f196da883-2" source="PpUYok5O0yKE4FNJiVqX-28" target="PpUYok5O0yKE4FNJiVqX-46">
          <mxGeometry relative="1" as="geometry" />
        </mxCell>
        <mxCell id="PpUYok5O0yKE4FNJiVqX-28" value="Knapsack をゼロにし、&lt;br&gt;sumにKnapsackからあふれた分のvalueをsumに足し合わせる" style="shape=parallelogram;perimeter=parallelogramPerimeter;whiteSpace=wrap;html=1;fixedSize=1;hachureGap=4;" vertex="1" parent="77e6c97f196da883-2">
          <mxGeometry x="365.5" y="620" width="180" height="50" as="geometry" />
        </mxCell>
        <mxCell id="PpUYok5O0yKE4FNJiVqX-50" style="edgeStyle=orthogonalEdgeStyle;rounded=0;orthogonalLoop=1;jettySize=auto;html=1;exitX=0.5;exitY=1;exitDx=0;exitDy=0;entryX=0.5;entryY=1;entryDx=0;entryDy=0;endArrow=open;startSize=14;endSize=14;sourcePerimeterSpacing=8;targetPerimeterSpacing=8;" edge="1" parent="77e6c97f196da883-2" source="PpUYok5O0yKE4FNJiVqX-30" target="PpUYok5O0yKE4FNJiVqX-46">
          <mxGeometry relative="1" as="geometry" />
        </mxCell>
        <mxCell id="PpUYok5O0yKE4FNJiVqX-30" value="kanpsackからobject[j].weightをひく&lt;br&gt;sum に object[j].value 足す" style="shape=parallelogram;perimeter=parallelogramPerimeter;whiteSpace=wrap;html=1;fixedSize=1;hachureGap=4;" vertex="1" parent="77e6c97f196da883-2">
          <mxGeometry x="238.59" y="750" width="200" height="50" as="geometry" />
        </mxCell>
        <mxCell id="77e6c97f196da883-10" value="end" style="rounded=1;whiteSpace=wrap;html=1;shadow=0;labelBackgroundColor=none;strokeWidth=1;fontFamily=Verdana;fontSize=8;align=center;" parent="77e6c97f196da883-2" vertex="1">
          <mxGeometry x="55" y="860" width="40" height="20" as="geometry" />
        </mxCell>
        <mxCell id="PpUYok5O0yKE4FNJiVqX-46" value="i++" style="shape=parallelogram;perimeter=parallelogramPerimeter;whiteSpace=wrap;html=1;fixedSize=1;hachureGap=4;" vertex="1" parent="77e6c97f196da883-2">
          <mxGeometry x="580" y="490" width="60" height="20" as="geometry" />
        </mxCell>
        <mxCell id="PpUYok5O0yKE4FNJiVqX-64" style="edgeStyle=orthogonalEdgeStyle;rounded=0;orthogonalLoop=1;jettySize=auto;html=1;exitX=1;exitY=0.5;exitDx=0;exitDy=0;entryX=0.5;entryY=0;entryDx=0;entryDy=0;endArrow=open;startSize=14;endSize=14;sourcePerimeterSpacing=8;targetPerimeterSpacing=8;" edge="1" parent="77e6c97f196da883-2" source="PpUYok5O0yKE4FNJiVqX-12" target="PpUYok5O0yKE4FNJiVqX-9">
          <mxGeometry relative="1" as="geometry" />
        </mxCell>
        <mxCell id="PpUYok5O0yKE4FNJiVqX-66" style="edgeStyle=orthogonalEdgeStyle;rounded=0;orthogonalLoop=1;jettySize=auto;html=1;exitX=0.5;exitY=1;exitDx=0;exitDy=0;entryX=0.5;entryY=0;entryDx=0;entryDy=0;endArrow=open;startSize=14;endSize=14;sourcePerimeterSpacing=8;targetPerimeterSpacing=8;" edge="1" parent="77e6c97f196da883-2" source="PpUYok5O0yKE4FNJiVqX-12" target="PpUYok5O0yKE4FNJiVqX-65">
          <mxGeometry relative="1" as="geometry" />
        </mxCell>
        <mxCell id="PpUYok5O0yKE4FNJiVqX-12" value="j &amp;lt; num;" style="rhombus;whiteSpace=wrap;html=1;hachureGap=4;" vertex="1" parent="77e6c97f196da883-2">
          <mxGeometry x="40" y="375" width="100" height="45" as="geometry" />
        </mxCell>
        <mxCell id="PpUYok5O0yKE4FNJiVqX-18" style="edgeStyle=orthogonalEdgeStyle;rounded=0;orthogonalLoop=1;jettySize=auto;html=1;exitX=0.5;exitY=1;exitDx=0;exitDy=0;entryX=0.5;entryY=0;entryDx=0;entryDy=0;endArrow=open;startSize=14;endSize=14;sourcePerimeterSpacing=8;targetPerimeterSpacing=8;" edge="1" parent="77e6c97f196da883-2" source="PpUYok5O0yKE4FNJiVqX-13" target="PpUYok5O0yKE4FNJiVqX-12">
          <mxGeometry relative="1" as="geometry" />
        </mxCell>
        <mxCell id="PpUYok5O0yKE4FNJiVqX-54" style="edgeStyle=orthogonalEdgeStyle;rounded=0;orthogonalLoop=1;jettySize=auto;html=1;exitX=0.5;exitY=0;exitDx=0;exitDy=0;entryX=0.5;entryY=0;entryDx=0;entryDy=0;endArrow=open;startSize=14;endSize=14;sourcePerimeterSpacing=8;targetPerimeterSpacing=8;" edge="1" parent="77e6c97f196da883-2" source="PpUYok5O0yKE4FNJiVqX-46" target="PpUYok5O0yKE4FNJiVqX-12">
          <mxGeometry relative="1" as="geometry">
            <Array as="points">
              <mxPoint x="920" y="330" />
              <mxPoint x="400" y="330" />
            </Array>
          </mxGeometry>
        </mxCell>
        <mxCell id="PpUYok5O0yKE4FNJiVqX-71" style="edgeStyle=orthogonalEdgeStyle;rounded=0;orthogonalLoop=1;jettySize=auto;html=1;exitX=0.5;exitY=1;exitDx=0;exitDy=0;entryX=0.5;entryY=0;entryDx=0;entryDy=0;endArrow=open;startSize=14;endSize=14;sourcePerimeterSpacing=8;targetPerimeterSpacing=8;" edge="1" parent="77e6c97f196da883-2" source="PpUYok5O0yKE4FNJiVqX-65" target="77e6c97f196da883-10">
          <mxGeometry relative="1" as="geometry" />
        </mxCell>
        <mxCell id="PpUYok5O0yKE4FNJiVqX-65" value="Knapsackに入ったvalueの合計sumを出力" style="shape=parallelogram;perimeter=parallelogramPerimeter;whiteSpace=wrap;html=1;fixedSize=1;hachureGap=4;" vertex="1" parent="77e6c97f196da883-2">
          <mxGeometry x="-10" y="660" width="170" height="40" as="geometry" />
        </mxCell>
        <mxCell id="77e6c97f196da883-3" value="sortObject" style="swimlane;html=1;startSize=20;" parent="77e6c97f196da883-1" vertex="1">
          <mxGeometry x="660" y="20" width="290" height="1310" as="geometry" />
        </mxCell>
        <mxCell id="PpUYok5O0yKE4FNJiVqX-3" value="object.performance の値で降順ソートする" style="shape=parallelogram;perimeter=parallelogramPerimeter;whiteSpace=wrap;html=1;fixedSize=1;hachureGap=4;" vertex="1" parent="77e6c97f196da883-3">
          <mxGeometry x="20" y="220" width="250" height="20" as="geometry" />
        </mxCell>
        <mxCell id="77e6c97f196da883-4" value="Lane 3" style="swimlane;html=1;startSize=20;" parent="77e6c97f196da883-1" vertex="1">
          <mxGeometry x="950" y="20" width="160" height="1310" as="geometry" />
        </mxCell>
        <mxCell id="77e6c97f196da883-5" value="Lane 4" style="swimlane;html=1;startSize=20;" parent="77e6c97f196da883-1" vertex="1">
          <mxGeometry x="1110" y="20" width="160" height="1310" as="geometry" />
        </mxCell>
        <mxCell id="77e6c97f196da883-6" value="Lane 5" style="swimlane;html=1;startSize=20;" parent="77e6c97f196da883-1" vertex="1">
          <mxGeometry x="1270" y="20" width="160" height="1310" as="geometry" />
        </mxCell>
        <mxCell id="77e6c97f196da883-7" value="Lane 6" style="swimlane;html=1;startSize=20;" parent="77e6c97f196da883-1" vertex="1">
          <mxGeometry x="1430" y="20" width="160" height="1310" as="geometry" />
        </mxCell>
        <mxCell id="PpUYok5O0yKE4FNJiVqX-8" style="edgeStyle=orthogonalEdgeStyle;rounded=0;orthogonalLoop=1;jettySize=auto;html=1;exitX=0.5;exitY=1;exitDx=0;exitDy=0;entryX=0.5;entryY=0;entryDx=0;entryDy=0;endArrow=open;startSize=14;endSize=14;sourcePerimeterSpacing=8;targetPerimeterSpacing=8;" edge="1" parent="77e6c97f196da883-1" source="PpUYok5O0yKE4FNJiVqX-2" target="PpUYok5O0yKE4FNJiVqX-3">
          <mxGeometry relative="1" as="geometry" />
        </mxCell>
        <mxCell id="PpUYok5O0yKE4FNJiVqX-16" style="edgeStyle=orthogonalEdgeStyle;rounded=0;orthogonalLoop=1;jettySize=auto;html=1;exitX=0.5;exitY=1;exitDx=0;exitDy=0;entryX=0.5;entryY=0;entryDx=0;entryDy=0;endArrow=open;startSize=14;endSize=14;sourcePerimeterSpacing=8;targetPerimeterSpacing=8;" edge="1" parent="77e6c97f196da883-1" source="PpUYok5O0yKE4FNJiVqX-3" target="PpUYok5O0yKE4FNJiVqX-13">
          <mxGeometry relative="1" as="geometry" />
        </mxCell>
      </root>
    </mxGraphModel>
  </diagram>
</mxfile>
